<svg width="95" height="74" viewBox="0 0 95 74" fill="none" xmlns="http://www.w3.org/2000/svg">
<g filter="url(#filter0_d_5_449)">
<path d="M28 31.8844C28.0485 43.8649 36.523 53.7531 48.3544 55.6712C54.5538 56.675 60.2827 55.3689 65.5047 51.9099C65.8376 51.6654 66.2195 51.4956 66.6243 51.4121C67.0291 51.3286 67.4473 51.3334 67.8501 51.4262C70.4599 51.9293 73.0915 52.3139 75.7183 52.7009C76.281 52.7831 76.931 53.0081 77.387 52.3647C77.7799 51.8035 77.3554 51.3657 77.1687 50.9134C76.1306 48.3897 75.0796 45.8741 74.0156 43.3666C73.9077 43.1364 73.8518 42.8854 73.8518 42.6313C73.8518 42.3772 73.9077 42.1262 74.0156 41.896C77.9715 32.3779 76.7054 23.5636 69.8754 15.8621C64.4108 9.70133 57.2897 7.26074 49.0796 8.19199C38.7326 9.36512 30.4715 17.3061 28.5045 27.1846C28.23 28.7381 28.0615 30.3083 28 31.8844Z" fill="#5920C5"/>
</g>
<path d="M51.8685 45.9731C45.0375 45.9731 39.071 41.3593 37.3596 34.7545C37.2204 34.218 37.5429 33.6707 38.0795 33.5315C38.6174 33.3924 39.1633 33.7148 39.3025 34.2514C40.7838 39.9717 45.9515 43.9659 51.8685 43.9659C53.9104 43.9659 55.864 43.5056 57.6745 42.5984C58.1696 42.3509 58.7731 42.5502 59.0206 43.0467C59.2695 43.5418 59.0688 44.1453 58.5723 44.3941C56.4796 45.4432 54.2235 45.9744 51.8672 45.9744L51.8685 45.9731Z" fill="white"/>
<path d="M65.8349 34.9674H65.8309C65.2769 34.9661 64.8287 34.5152 64.8313 33.9599L64.8421 30.5986C64.743 27.2159 63.3514 24.0526 60.9228 21.6869C58.4861 19.3131 55.2707 18.0071 51.8679 18.0071C49.4594 18.0071 47.1083 18.6708 45.0691 19.9286C44.5981 20.219 43.9785 20.0732 43.6882 19.6008C43.3978 19.1285 43.5436 18.5103 44.016 18.2199C46.3737 16.7667 49.0887 16 51.8693 16C55.7979 16 59.5111 17.5094 62.3238 20.2498C65.1324 22.9848 66.7395 26.6459 66.8492 30.5584C66.8492 30.5691 66.8492 30.5798 66.8492 30.5905L66.8385 33.9679C66.8371 34.5205 66.3875 34.9674 65.8349 34.9674Z" fill="white"/>
<path d="M38.0036 32.0935C37.463 32.0935 37.0161 31.6626 37.0013 31.118C37 31.0618 37 31.0043 37 30.9468C37 29.6354 37.1699 28.3361 37.5058 27.0864C38.1146 24.8049 39.2814 22.668 40.8791 20.9111C41.2525 20.5003 41.8867 20.4708 42.2962 20.8442C42.707 21.2175 42.7364 21.8517 42.3631 22.2612C40.9795 23.7826 39.9706 25.6305 39.4434 27.6055C39.153 28.6881 39.0058 29.812 39.0058 30.9481C39.0058 30.9869 39.0058 31.0257 39.0058 31.0632C39.0219 31.6171 38.5843 32.0788 38.0303 32.0948C38.021 32.0948 38.0116 32.0948 38.0022 32.0948L38.0036 32.0935Z" fill="white"/>
<path d="M51.9563 36.1382C49.1156 36.1382 46.8047 33.8273 46.8047 30.9866C46.8047 28.1458 49.1156 25.8349 51.9563 25.8349C54.7971 25.8349 57.108 28.1458 57.108 30.9866C57.108 33.8273 54.7971 36.1382 51.9563 36.1382ZM51.9563 27.842C50.2222 27.842 48.8118 29.2524 48.8118 30.9866C48.8118 32.7207 50.2222 34.1311 51.9563 34.1311C53.6905 34.1311 55.1009 32.7207 55.1009 30.9866C55.1009 29.2524 53.6905 27.842 51.9563 27.842Z" fill="white"/>
<path d="M51.9571 41.8586C50.6029 41.8586 49.2809 41.6124 48.0271 41.1267C47.5454 40.9394 47.3059 40.3974 47.4919 39.9144C47.6792 39.4327 48.2211 39.1932 48.7042 39.3792C49.7399 39.7806 50.8344 39.984 51.9571 39.984C56.9187 39.984 60.9557 35.947 60.9557 30.9853C60.9557 30.0486 60.8126 29.1267 60.5316 28.2449C60.3737 27.7525 60.6466 27.2253 61.1391 27.0674C61.6315 26.9095 62.1587 27.1825 62.3166 27.6749C62.6578 28.7413 62.8304 29.856 62.8304 30.9853C62.8304 36.98 57.9531 41.8573 51.9584 41.8573L51.9571 41.8586Z" fill="white"/>
<path d="M42.6914 35.5174C42.3167 35.5174 41.9621 35.2899 41.8176 34.9193C41.3306 33.6655 41.0844 32.3421 41.0844 30.9866C41.0844 24.992 45.9617 20.1146 51.9563 20.1146C52.2012 20.1146 52.4501 20.1227 52.6936 20.1387C53.2101 20.1735 53.5995 20.6204 53.5661 21.1356C53.5313 21.6521 53.0857 22.0415 52.5692 22.008C52.3671 21.9946 52.1611 21.988 51.9577 21.988C46.996 21.988 42.959 26.025 42.959 30.9866C42.959 32.1093 43.1637 33.2052 43.5652 34.2422C43.7525 34.7239 43.513 35.2672 43.0313 35.4545C42.9202 35.4973 42.8051 35.5187 42.6927 35.5187L42.6914 35.5174Z" fill="white"/>
<path d="M57.5691 24.6641C57.0151 24.6641 56.5655 24.2145 56.5655 23.6606C56.5655 23.1066 57.0138 22.657 57.5691 22.657C58.123 22.657 58.5726 23.1066 58.5726 23.6606C58.5726 24.2145 58.123 24.6641 57.5691 24.6641Z" fill="white"/>
<path d="M45.1247 39.1757C44.5708 39.1757 44.1212 38.7261 44.1212 38.1721C44.1212 37.6181 44.5694 37.1685 45.1247 37.1685C45.6787 37.1685 46.1283 37.6181 46.1283 38.1721C46.1283 38.7261 45.6787 39.1757 45.1247 39.1757Z" fill="white"/>
<path d="M65.8338 46C65.2799 46 64.8303 45.5504 64.8303 44.9965V33.9639C64.8303 33.4099 65.2799 32.9603 65.8338 32.9603C66.3878 32.9603 66.8374 33.4099 66.8374 33.9639V44.9965C66.8374 45.5504 66.3878 46 65.8338 46Z" fill="white"/>
<defs>
<filter id="filter0_d_5_449" x="0" y="0" width="105.548" height="104" filterUnits="userSpaceOnUse" color-interpolation-filters="sRGB">
<feFlood flood-opacity="0" result="BackgroundImageFix"/>
<feColorMatrix in="SourceAlpha" type="matrix" values="0 0 0 0 0 0 0 0 0 0 0 0 0 0 0 0 0 0 127 0" result="hardAlpha"/>
<feOffset dy="20"/>
<feGaussianBlur stdDeviation="14"/>
<feComposite in2="hardAlpha" operator="out"/>
<feColorMatrix type="matrix" values="0 0 0 0 0.34902 0 0 0 0 0.12549 0 0 0 0 0.772549 0 0 0 0.25 0"/>
<feBlend mode="normal" in2="BackgroundImageFix" result="effect1_dropShadow_5_449"/>
<feBlend mode="normal" in="SourceGraphic" in2="effect1_dropShadow_5_449" result="shape"/>
</filter>
</defs>
</svg>
