<svg width="14" height="14" viewBox="0 0 14 14" fill="none" xmlns="http://www.w3.org/2000/svg">
<path d="M13.47 1.59C13.7627 1.29729 13.7627 0.822711 13.47 0.53C13.1773 0.237289 12.7027 0.237289 12.41 0.53L7 5.94L1.59 0.53C1.29729 0.237289 0.822711 0.237289 0.53 0.53C0.237289 0.822711 0.237289 1.29729 0.53 1.59L5.94 7L0.53 12.41C0.237289 12.7027 0.237289 13.1773 0.53 13.47C0.822711 13.7627 1.29729 13.7627 1.59 13.47L7 8.06L12.41 13.47C12.7027 13.7627 13.1773 13.7627 13.47 13.47C13.7627 13.1773 13.7627 12.7027 13.47 12.41L8.06 7L13.47 1.59Z" fill="white"/>
</svg>
