<svg width="84" height="27" viewBox="0 0 84 27" fill="none" xmlns="http://www.w3.org/2000/svg">
<path d="M70.5562 6.77599e-05L13.4204 0.117009C5.99839 0.117009 -0.0232722 6.17455 6.76197e-05 13.612C0.0234074 21.0494 5.88169 26.9199 13.3037 26.8965L70.4395 26.7795C77.8616 26.7562 84.0233 20.8857 83.9999 13.4483C83.9999 6.01083 77.9783 -0.0233204 70.5562 6.77599e-05Z" fill="white"/>
<path d="M70.0661 23.4818C64.5346 23.4818 60.03 18.9913 60.03 13.4717C60.03 7.95206 64.5113 3.41475 70.0195 3.41475C75.551 3.41475 80.0556 7.90528 80.0556 13.4249C80.0556 18.9445 75.5977 23.4584 70.0661 23.4818Z" fill="#7C47E1"/>
<path d="M76.7087 14.9636C77.5596 11.2762 75.2664 7.59569 71.5866 6.74296C67.9069 5.89024 64.2341 8.1882 63.3832 11.8756C62.5323 15.563 64.8256 19.2435 68.5053 20.0963C72.1851 20.949 75.8579 18.651 76.7087 14.9636Z" fill="#0FA457"/>
<path d="M23.9699 13.5184C23.9699 7.9988 19.4654 3.50827 13.9338 3.50827C8.42564 3.50827 3.9444 8.02219 3.9444 13.5652C3.9444 19.0848 8.44898 23.5753 13.9805 23.5753C16.5946 23.5753 18.9752 22.5463 20.7724 20.8857V21.9382C20.7724 22.8269 21.4959 23.552 22.3828 23.552C23.2697 23.552 23.9933 22.8269 23.9933 21.9382L23.9699 13.8459C23.9699 13.8225 23.9699 13.7757 23.9699 13.7523C23.9699 13.6821 23.9699 13.612 23.9699 13.5184ZM13.9572 20.3478C10.2228 20.3478 7.16529 17.3073 7.14195 13.5652C7.14195 9.82308 10.1761 6.75923 13.9105 6.73584C17.6449 6.73584 20.7024 9.77631 20.7257 13.5184C20.749 17.2839 17.7149 20.3478 13.9572 20.3478Z" fill="#7C47E1"/>
<path d="M36.1537 23.5286C30.5988 23.5286 26.0709 19.0146 26.0475 13.4483C26.0475 7.88186 30.5521 3.34456 36.107 3.32117C38.6043 3.32117 40.985 4.23331 42.8522 5.89387C43.5057 6.50196 43.5757 7.50765 42.9689 8.18591C42.362 8.86417 41.3584 8.91094 40.6816 8.30285C39.4212 7.18022 37.7875 6.54874 36.107 6.54874C32.3259 6.54874 29.2684 9.63598 29.2684 13.4249C29.2684 17.2137 32.3493 20.2776 36.1303 20.2776C37.8341 20.2776 39.4446 19.6461 40.7049 18.5001C41.3584 17.892 42.3854 17.9622 42.9922 18.617C43.5991 19.2719 43.529 20.301 42.8755 20.9091C41.0317 22.6164 38.651 23.5286 36.1537 23.5286Z" fill="#7C47E1"/>
<path d="M60.1934 20.5583L51.511 13.2846L60.1701 6.1278C60.8469 5.56649 60.9403 4.53741 60.3801 3.85915C59.82 3.18089 58.793 3.08734 58.1162 3.64866L48.7336 11.4603L48.7103 4.91162C48.7103 4.02287 47.9867 3.29784 47.0998 3.29784C46.2129 3.29784 45.4894 4.02287 45.4894 4.91162L45.5127 21.8213C45.5127 22.71 46.2363 23.435 47.1232 23.435C48.0101 23.435 48.7336 22.71 48.7336 21.8213L48.7103 15.2492L58.1162 23.0375C58.4196 23.2947 58.7697 23.4117 59.1431 23.4117C59.6099 23.4117 60.0534 23.2012 60.3801 22.827C60.9636 22.1253 60.8703 21.1196 60.1934 20.5583Z" fill="#7C47E1"/>
</svg>
