<svg width="24" height="24" viewBox="0 0 24 24" fill="none" xmlns="http://www.w3.org/2000/svg">
<path d="M23.0401 0H24V0.853333C23.9469 0.94104 23.8992 1.03187 23.8571 1.12533C21.0642 8.4576 18.2678 15.7888 15.4678 23.1189C15.3462 23.4389 15.1116 23.7077 14.9345 24H14.4013C14.2285 23.7621 14.0163 23.5435 13.8883 23.2821C12.8388 21.1339 11.8128 18.9739 10.7591 16.8277C10.613 16.5312 10.6322 16.3371 10.821 16.0704C12.376 13.8688 13.9139 11.6555 15.4571 9.44426C16.0707 8.56604 16.6829 7.68783 17.2937 6.8096C17.1627 6.81127 17.0359 6.85628 16.9332 6.9376C13.9811 8.99733 11.0236 11.0507 8.08106 13.1296C7.7259 13.3813 7.46781 13.3835 7.09452 13.2011C4.97854 12.1664 2.84549 11.1669 0.730573 10.1301C0.451144 9.99254 0.242101 9.70347 0 9.49014V9.2768C0.269831 9.04854 0.503401 8.7264 0.814826 8.60587C6.59041 6.36231 12.371 4.13298 18.1565 1.91786C19.7915 1.29173 21.4137 0.641067 23.0401 0Z" fill="#5920C5"/>
</svg>
