<svg width="24" height="25" viewBox="0 0 24 25" fill="none" xmlns="http://www.w3.org/2000/svg">
<path fill-rule="evenodd" clip-rule="evenodd" d="M22 2.58676C22 2.58686 22 2.58665 22 2.58676V2.58676ZM22 2.95851V16.6728H9.42625L5.77147 19.8479V16.6728H2V2.95851H22ZM22.3463 0.95851C22.5583 0.955215 22.769 0.993377 22.9666 1.0709C23.1689 1.15031 23.3532 1.2694 23.5088 1.42117C23.6648 1.57336 23.7881 1.75486 23.8723 1.9546C23.9566 2.15485 24 2.36991 24 2.58707C24 2.58718 24 2.58697 24 2.58707V17.0442C24 17.4756 23.829 17.89 23.5231 18.1958C23.2175 18.5014 22.803 18.6728 22.3714 18.6728H10.1737L3.77147 24.2348V18.6728H1.62861C1.19667 18.6728 0.782452 18.5012 0.477045 18.1958C0.171776 17.8905 0 17.4764 0 17.0442V2.58707C0 2.15494 0.171776 1.74078 0.477045 1.43551C0.782452 1.1301 1.19667 0.95851 1.62861 0.95851H22.3463Z" fill="#36354C"/>
<path d="M7.06684 10.6959C7.83925 10.6959 8.46542 10.0697 8.46542 9.29731C8.46542 8.5249 7.83925 7.89874 7.06684 7.89874C6.29444 7.89874 5.66827 8.5249 5.66827 9.29731C5.66827 10.0697 6.29444 10.6959 7.06684 10.6959Z" fill="#36354C"/>
<path d="M12.0144 10.6959C12.7868 10.6959 13.4129 10.0697 13.4129 9.29731C13.4129 8.5249 12.7868 7.89874 12.0144 7.89874C11.2419 7.89874 10.6158 8.5249 10.6158 9.29731C10.6158 10.0697 11.2419 10.6959 12.0144 10.6959Z" fill="#36354C"/>
<path d="M16.965 10.6959C17.7374 10.6959 18.3635 10.0697 18.3635 9.29731C18.3635 8.5249 17.7374 7.89874 16.965 7.89874C16.1926 7.89874 15.5664 8.5249 15.5664 9.29731C15.5664 10.0697 16.1926 10.6959 16.965 10.6959Z" fill="#36354C"/>
</svg>
