<svg width="23" height="25" viewBox="0 0 23 25" fill="none" xmlns="http://www.w3.org/2000/svg">
<path d="M17.3802 5.26266C17.7046 4.8167 18.3321 4.71425 18.7486 5.07555C19.8462 6.02746 20.7534 7.18322 21.4181 8.48201C22.2347 10.0776 22.6622 11.8437 22.6657 13.6361C22.6585 16.6384 21.4617 19.5155 19.3374 21.6372C17.2132 23.7589 14.3346 24.9522 11.3323 24.9558C8.32996 24.9522 5.45149 23.7589 3.32725 21.6372C1.20302 19.5155 0.00618817 16.6384 -0.000975573 13.636C-0.00570946 11.8862 0.396844 10.1592 1.17472 8.59168C1.80438 7.32285 2.66597 6.18668 3.7121 5.24047C4.12111 4.87052 4.75067 4.96037 5.08391 5.39979L5.10561 5.42841C5.44059 5.87013 5.34791 6.49638 4.94329 6.87535C4.14417 7.62381 3.48293 8.51071 2.99304 9.49588C2.35354 10.7819 2.02375 12.1998 2.03008 13.636C2.03367 16.1008 3.01535 18.4634 4.75947 20.2049C6.50359 21.9465 8.86754 22.9248 11.3323 22.9248C13.7971 22.9248 16.1611 21.9465 17.9052 20.2049C19.6493 18.4634 20.631 16.1008 20.6346 13.6361C20.6311 12.1638 20.2797 10.7132 19.6091 9.4025C19.0909 8.38983 18.3935 7.48286 17.5534 6.7242C17.143 6.35366 17.0394 5.73123 17.3646 5.2841L17.3802 5.26266Z" fill="#36354C"/>
<path d="M14.7496 4.13031C15.0172 4.13031 15.1509 3.80668 14.9614 3.61783L11.544 0.211595C11.4269 0.0948998 11.2375 0.0948998 11.1205 0.211594L7.70305 3.61783C7.51358 3.80668 7.64732 4.13031 7.91483 4.13031L14.7496 4.13031Z" fill="#36354C"/>
<path d="M14.2056 8.00049H8.9209C8.36861 8.00049 7.9209 8.4482 7.9209 9.00049V9.03154C7.9209 9.58383 8.36861 10.0315 8.9209 10.0315H14.2056C14.7579 10.0315 15.2056 9.58383 15.2056 9.03154V9.00049C15.2056 8.4482 14.7579 8.00049 14.2056 8.00049Z" fill="#36354C"/>
<path d="M14.1238 11.4927H8.45996C7.90768 11.4927 7.45996 11.9404 7.45996 12.4927V12.5237C7.45996 13.076 7.90768 13.5237 8.45996 13.5237H14.1238C14.6761 13.5237 15.1238 13.076 15.1238 12.5237V12.4927C15.1238 11.9404 14.6761 11.4927 14.1238 11.4927Z" fill="#36354C"/>
<path d="M12.9326 19.9143C12.5436 20.3107 11.9062 20.3142 11.5128 19.9221L7.8667 16.2872C7.12455 15.464 7.67485 14.5249 8.58429 14.554H8.93636C9.53733 14.554 10.1138 14.3163 10.5401 13.8926C10.9663 13.4689 11.2076 12.8938 11.2111 12.2928C11.2076 11.6918 10.9663 11.1167 10.5401 10.693C10.1138 10.2693 9.53733 10.0315 8.93636 10.0315H8.58232C8.03004 10.0315 7.58232 9.58383 7.58232 9.03154V9.00049C7.58232 8.4482 8.03004 8.00049 8.58232 8.00049H8.93636C10.076 8.00048 11.1691 8.45231 11.9762 9.25688C12.7834 10.0615 13.2386 11.1532 13.2422 12.2928C13.241 13.1264 12.9971 13.9417 12.5402 14.639C12.0833 15.3363 11.4333 15.8855 10.6695 16.2195L12.9447 18.4844C13.3341 18.872 13.3378 19.5013 12.953 19.8935L12.9326 19.9143Z" fill="#36354C"/>
</svg>
