<svg width="28" height="28" viewBox="0 0 28 28" fill="none" xmlns="http://www.w3.org/2000/svg">
<path d="M10.4306 27.3334C10.1637 27.3334 9.91023 27.2268 9.72342 27.0405L7.44171 24.7639C7.12147 24.4444 7.05475 23.9651 7.28159 23.579C7.78863 22.6737 7.68189 21.6352 7.02806 20.9829C6.37424 20.3305 5.33346 20.2373 4.43946 20.7299C4.0525 20.9429 3.55879 20.8764 3.23855 20.5569L0.956844 18.2803C0.569887 17.8942 0.569887 17.2551 0.956844 16.8691L16.8755 0.959581C17.0623 0.773194 17.3158 0.666687 17.5826 0.666687C17.8495 0.666687 18.103 0.773194 18.2898 0.959581L20.4915 3.15629C20.8384 3.51575 20.8785 4.07491 20.5716 4.461C19.8644 5.39293 19.8777 6.64439 20.6116 7.37662C21.3455 8.10886 22.5864 8.12217 23.5204 7.41656C23.9207 7.11036 24.4812 7.15029 24.8414 7.50976L27.0431 9.70646C27.43 10.0925 27.43 10.7316 27.0431 11.1177L11.1378 27.0405C10.951 27.2268 10.6975 27.3334 10.4306 27.3334ZM9.33646 23.8319L10.4306 24.9236L24.9348 10.4254L24.0008 9.48013C22.3862 10.2656 20.4515 10.026 19.2239 8.78784C17.9829 7.5497 17.7428 5.61926 18.5434 4.00834L17.6093 3.06309L3.07843 17.5747L4.17259 18.6664C5.69373 18.1338 7.33496 18.4533 8.44246 19.5717C9.54996 20.6767 9.88354 22.3275 9.33646 23.8453V23.8319Z" fill="#36354C"/>
<path d="M10.192 15.4439C10.9289 15.4439 11.5263 14.8479 11.5263 14.1126C11.5263 13.3773 10.9289 12.7812 10.192 12.7812C9.45507 12.7812 8.85767 13.3773 8.85767 14.1126C8.85767 14.8479 9.45507 15.4439 10.192 15.4439Z" fill="#36354C"/>
<path d="M17.3432 15.4439C18.0802 15.4439 18.6776 14.8479 18.6776 14.1126C18.6776 13.3773 18.0802 12.7812 17.3432 12.7812C16.6063 12.7812 16.0089 13.3773 16.0089 14.1126C16.0089 14.8479 16.6063 15.4439 17.3432 15.4439Z" fill="#36354C"/>
<path d="M13.7545 18.8526C13.2075 18.8526 12.7538 18.3999 12.7538 17.8541V10.1457C12.7538 9.59981 13.2075 9.14716 13.7545 9.14716C14.3016 9.14716 14.7553 9.59981 14.7553 10.1457V17.8541C14.7553 18.3999 14.3016 18.8526 13.7545 18.8526Z" fill="#36354C"/>
</svg>
